<?xml version="1.0" encoding="iso-8859-1"?>
<!-- Generator: Adobe Illustrator 19.0.0, SVG Export Plug-In . SVG Version: 6.00 Build 0)  -->
<svg version="1.1" id="Layer_1" xmlns="http://www.w3.org/2000/svg" xmlns:xlink="http://www.w3.org/1999/xlink" x="0px" y="0px"
	 viewBox="0 0 512 512" style="enable-background:new 0 0 512 512;" xml:space="preserve">
<path style="fill:#4D3A2D;" d="M344.178,110.887c-25.146-3.458-65.95,11.378-88.178,11.378s-63.032-14.835-88.178-11.378
	c-34.676,4.767-61.649,85.316-76.208,147.388L256,292.408l164.386-34.133C405.827,196.203,378.854,115.655,344.178,110.887z"/>
<path style="fill:#AE8372;" d="M432.057,258.275H79.944c-7.309,31.706-11.385,58.395-11.671,67.925L256,348.957l187.729-22.756
	C443.442,316.67,439.365,289.981,432.057,258.275z"/>
<path style="fill:#261D16;" d="M0,326.542c0,41.473,114.615,75.093,256,75.093s256-33.62,256-75.093H0z"/>
<g>
</g>
<g>
</g>
<g>
</g>
<g>
</g>
<g>
</g>
<g>
</g>
<g>
</g>
<g>
</g>
<g>
</g>
<g>
</g>
<g>
</g>
<g>
</g>
<g>
</g>
<g>
</g>
<g>
</g>
</svg>
